<?xml version="1.0" encoding="UTF-8" standalone="no"?><!DOCTYPE svg PUBLIC "-//W3C//DTD SVG 1.1//EN" "http://www.w3.org/Graphics/SVG/1.1/DTD/svg11.dtd"><svg width="100%" height="100%" viewBox="0 0 1647 177" version="1.1" xmlns="http://www.w3.org/2000/svg" xmlns:xlink="http://www.w3.org/1999/xlink" xml:space="preserve" xmlns:serif="http://www.serif.com/" style="fill-rule:evenodd;clip-rule:evenodd;stroke-linejoin:round;stroke-miterlimit:1.41421;"><rect id="Artboard1" x="0" y="0" width="1646.9" height="176.5" style="fill:none;"/><clipPath id="_clip1"><rect id="Artboard11" serif:id="Artboard1" x="0" y="0" width="1646.9" height="176.5"/></clipPath><g clip-path="url(#_clip1)"><path d="M322.816,159.176l-0.189,-78.559l-38.528,64.718l-13.655,0l-38.346,-63.033l0,76.874l-28.428,0l0,-130.931l25.062,0l49.005,81.363l48.26,-81.363l24.877,0l0.374,130.931l-28.432,0Z" style="fill:#fff;fill-rule:nonzero;"/><rect x="382.294" y="28.245" width="30.302" height="130.931" style="fill:#fff;"/><path d="M563.719,28.245l0,130.931l-24.876,0l-65.275,-79.493l0,79.493l-29.928,0l0,-130.931l25.062,0l65.093,79.492l0,-79.492l29.924,0Z" style="fill:#fff;fill-rule:nonzero;"/><path d="M609.267,145.895c-10.412,-10.347 -15.616,-25.123 -15.616,-44.327l0,-73.322l30.298,0l0,72.2c0,23.441 9.73,35.161 29.18,35.161c9.475,0 16.709,-2.833 21.699,-8.509c4.986,-5.673 7.481,-14.556 7.481,-26.652l0,-72.2l29.925,0l0,73.322c0,19.204 -5.208,33.98 -15.616,44.327c-10.412,10.354 -24.971,15.525 -43.674,15.525c-18.706,0 -33.265,-5.171 -43.677,-15.525" style="fill:#fff;fill-rule:nonzero;"/><path d="M767.037,52.937l-41.897,0l0,-24.691l114.097,0l0,24.691l-41.898,0l0,106.239l-30.302,0l0,-106.239Z" style="fill:#fff;fill-rule:nonzero;"/><path d="M956.884,134.858l0,24.317l-101.376,0l0,-130.93l98.946,0l0,24.317l-68.833,0l0,28.428l60.789,0l0,23.569l-60.789,0l0,30.299l71.263,0Z" style="fill:#fff;fill-rule:nonzero;"/><path d="M994.946,155.62c-8.915,-3.112 -15.805,-7.23 -20.667,-12.344l5.422,-10.662c4.739,4.742 11.036,8.577 18.891,11.505c7.856,2.931 15.961,4.394 24.318,4.394c11.719,0 20.511,-2.15 26.372,-6.454c5.858,-4.299 8.792,-9.877 8.792,-16.738c0,-5.236 -1.59,-9.413 -4.772,-12.532c-3.177,-3.116 -7.078,-5.517 -11.69,-7.201c-4.615,-1.682 -11.036,-3.524 -19.266,-5.517c-9.852,-2.495 -17.707,-4.891 -23.565,-7.202c-5.865,-2.306 -10.88,-5.828 -15.057,-10.567c-4.179,-4.74 -6.267,-11.161 -6.267,-19.266c0,-6.61 1.746,-12.627 5.236,-18.049c3.49,-5.426 8.854,-9.759 16.088,-13.001c7.23,-3.24 16.208,-4.863 26.933,-4.863c7.48,0 14.805,1.028 21.978,3.087c7.168,2.055 13.375,4.895 18.611,8.509l-4.677,11.036c-5.488,-3.614 -11.349,-6.326 -17.58,-8.135c-6.24,-1.808 -12.348,-2.712 -18.332,-2.712c-11.473,0 -20.105,2.215 -25.905,6.638c-5.8,4.427 -8.698,10.132 -8.698,17.116c0,5.236 1.591,9.446 4.769,12.623c3.181,3.182 7.169,5.615 11.973,7.296c4.797,1.685 11.25,3.526 19.357,5.517c9.601,2.371 17.362,4.709 23.289,7.016c5.92,2.31 10.942,5.796 15.056,10.474c4.116,4.677 6.17,11.007 6.17,18.985c0,6.61 -1.775,12.624 -5.331,18.049c-3.552,5.426 -9.01,9.726 -16.364,12.907c-7.361,3.178 -16.4,4.769 -27.12,4.769c-9.726,0 -19.052,-1.559 -27.964,-4.678" style="fill:#fff;fill-rule:nonzero;"/><path d="M1123.63,151.694c-10.416,-5.734 -18.583,-13.684 -24.503,-23.849c-5.927,-10.161 -8.887,-21.539 -8.887,-34.133c0,-12.595 2.96,-23.973 8.887,-34.137c5.92,-10.162 14.12,-18.111 24.594,-23.849c10.476,-5.735 22.196,-8.603 35.164,-8.603c9.725,0 18.707,1.623 26.935,4.863c8.23,3.242 15.213,7.981 20.948,14.217l-8.788,8.788c-10.227,-10.346 -23.134,-15.525 -38.721,-15.525c-10.35,0 -19.763,2.372 -28.242,7.111c-8.481,4.74 -15.122,11.222 -19.92,19.451c-4.801,8.229 -7.201,17.461 -7.201,27.684c0,10.222 2.4,19.451 7.201,27.68c4.798,8.229 11.439,14.715 19.92,19.454c8.479,4.74 17.892,7.108 28.242,7.108c15.714,0 28.617,-5.238 38.721,-15.714l8.788,8.792c-5.735,6.235 -12.75,11.007 -21.041,14.308c-8.295,3.305 -17.301,4.958 -27.027,4.958c-12.972,0 -24.662,-2.866 -35.07,-8.604" style="fill:#fff;fill-rule:nonzero;"/><path d="M1314.69,97.264c6.856,-5.734 10.284,-13.774 10.284,-24.128c0,-10.597 -3.428,-18.732 -10.284,-24.408c-6.86,-5.673 -16.774,-8.513 -29.739,-8.513l-34.791,0l0,65.653l34.791,0c12.965,0 22.879,-2.866 29.739,-8.604m11.032,61.912l-29.925,-42.083c-3.366,0.374 -6.859,0.559 -10.472,0.559l-35.165,0l0,41.524l-13.844,0l0,-130.931l49.009,0c16.705,0 29.801,3.992 39.275,11.97c9.475,7.983 14.218,18.957 14.218,32.921c0,10.226 -2.59,18.862 -7.765,25.904c-5.175,7.049 -12.561,12.129 -22.163,15.245l31.984,44.891l-15.152,0Z" style="fill:#fff;fill-rule:nonzero;"/><rect x="1371.55" y="28.245" width="13.844" height="130.931" style="fill:#fff;"/><path d="M1506.41,97.169c6.856,-5.672 10.285,-13.68 10.285,-24.034c0,-10.596 -3.429,-18.731 -10.285,-24.407c-6.86,-5.673 -16.774,-8.513 -29.739,-8.513l-34.791,0l0,65.467l34.791,0c12.965,0 22.879,-2.836 29.739,-8.513m9.911,-56.954c9.475,7.982 14.218,18.957 14.218,32.92c0,13.968 -4.743,24.91 -14.218,32.827c-9.475,7.92 -22.571,11.879 -39.276,11.879l-35.165,0l0,41.335l-13.844,0l0,-130.931l49.009,0c16.705,0 29.801,3.991 39.276,11.97" style="fill:#fff;fill-rule:nonzero;"/><path d="M1581.6,40.215l-46.013,0l0,-11.97l105.866,0l0,11.97l-46.013,0l0,118.961l-13.84,0l0,-118.961Z" style="fill:#fff;fill-rule:nonzero;"/><rect x="-5.434" y="1.756" width="32.915" height="176.508" style="fill:#fff;"/><rect x="59.572" y="94.34" width="101.681" height="27.154" style="fill:#fff;"/><rect x="13.957" y="135.475" width="84.766" height="27.154" style="fill:#fff;"/><rect x="128.347" y="1.765" width="32.906" height="176.507" style="fill:#fff;"/><path d="M128.347,1.764l-50.433,48.957l-50.433,-48.957l-18.933,27.154l52.901,51.425l32.93,0l52.902,-51.425l-18.934,-27.154Z" style="fill:#fff;fill-rule:nonzero;"/></g></svg>